<?xml version="1.0" encoding="UTF-8"?> <svg xmlns="http://www.w3.org/2000/svg" xmlns:xlink="http://www.w3.org/1999/xlink" version="1.1" id="Layer_1" x="0px" y="0px" viewBox="0 0 93.8 93.8" style="enable-background:new 0 0 93.8 93.8;" xml:space="preserve"> <style type="text/css"> .st0{fill:#119A48;} </style> <g id="Layer_2_1_"> <g id="Layer_1-2"> <path class="st0" d="M1.8,46.9C1.8,71.8,22,92,46.9,92S92,71.8,92,46.9C92,22,71.8,1.8,46.9,1.8C22,1.8,1.8,22,1.8,46.9 M0,46.9 C0,21,21,0,46.9,0s46.9,21,46.9,46.9s-21,46.9-46.9,46.9c0,0,0,0,0,0C21,93.8,0,72.8,0,46.9"></path> <path class="st0" d="M13.7,69.7l1-7.6c0.1-0.4,0.1-0.7,0.1-0.8c0-0.1,0.1-0.3,0.1-0.4c0-0.1,0.1-0.2,0.3-0.2 c0.1,0,0.2,0.1,0.2,0.1c0.1,0.1,0.1,0.3,0.2,0.4c0,0.2,0,0.3,0.1,0.5c0,0.1,0,0.2,0,0.4s0,0.3,0,0.4s0,0.3-0.1,0.4l-1.1,7.3 c0,0.3-0.1,0.6-0.1,0.8s-0.1,0.5-0.1,0.7c0,0.2-0.1,0.3-0.2,0.5c-0.1,0.1-0.2,0.2-0.3,0.2c-0.1,0-0.2-0.1-0.3-0.2 c-0.1-0.1-0.2-0.3-0.2-0.5C13.1,71.4,13,71.2,13,71c0-0.2-0.1-0.5-0.1-0.8l-1.1-7.3l-0.1-0.4c0-0.1,0-0.3-0.1-0.4s0-0.3,0-0.4 c0-0.2,0-0.5,0.1-0.7c0.1-0.2,0.2-0.3,0.3-0.3s0.3,0.1,0.3,0.3s0.1,0.6,0.2,1.1L13.7,69.7z"></path> <path class="st0" d="M17.1,71c0,0.3,0,0.7-0.1,1c-0.1,0.2-0.2,0.3-0.3,0.3s-0.2-0.1-0.3-0.3c-0.1-0.3-0.1-0.6-0.1-0.9v-6 c0-0.3,0-0.6,0.1-0.9c0.1-0.2,0.2-0.3,0.3-0.3s0.2,0.1,0.3,0.3c0.1,0.3,0.1,0.6,0.1,0.9L17.1,71z M16.4,62.5 c-0.1-0.2-0.1-0.5-0.1-0.8c0-0.3,0-0.5,0.1-0.7c0.1-0.2,0.2-0.3,0.3-0.3s0.2,0.1,0.3,0.3c0.1,0.2,0.1,0.5,0.1,0.8 c0,0.3,0,0.5-0.1,0.8c-0.1,0.2-0.2,0.3-0.3,0.3S16.5,62.7,16.4,62.5"></path> <path class="st0" d="M20.2,67.3c0-0.5-0.1-1.1-0.2-1.6c-0.1-0.4-0.3-0.5-0.5-0.5s-0.4,0.2-0.5,0.6c-0.2,0.5-0.2,1.1-0.2,1.6H20.2z M18.6,68.5c0,0.4,0,0.8,0.1,1.3c0,0.3,0.1,0.6,0.3,0.8c0.1,0.2,0.2,0.3,0.4,0.3c0.1,0,0.2,0,0.3-0.1c0.1-0.1,0.2-0.2,0.2-0.3 c0.1-0.1,0.2-0.3,0.2-0.4c0.1-0.1,0.1-0.3,0.3-0.6s0.1-0.1,0.2-0.1s0.2,0.1,0.2,0.2c0.1,0.2,0.1,0.3,0.1,0.5c0,0.2,0,0.4-0.1,0.7 c-0.1,0.3-0.1,0.5-0.3,0.7c-0.1,0.2-0.3,0.4-0.4,0.6c-0.2,0.1-0.4,0.2-0.6,0.2c-0.5,0-1-0.4-1.3-1.1c-0.3-1-0.5-2.1-0.4-3.1 c0-0.6,0-1.2,0.1-1.7c0.1-0.5,0.2-0.9,0.3-1.3c0.1-0.3,0.3-0.6,0.5-0.9c0.2-0.2,0.4-0.3,0.7-0.3c0.4,0,0.7,0.2,0.8,0.5 c0.3,0.4,0.4,0.9,0.5,1.3c0.1,0.6,0.2,1.1,0.2,1.7c0,0.3,0,0.7-0.2,1c-0.1,0.2-0.3,0.2-0.5,0.2L18.6,68.5z"></path> <path class="st0" d="M21.8,64v-1.3c0-0.3,0-0.6,0-0.8c0-0.2,0-0.3,0.1-0.5c0-0.1,0.1-0.2,0.1-0.4c0-0.1,0.1-0.1,0.2-0.1 c0.1,0,0.2,0.1,0.3,0.3c0.1,0.2,0.1,0.3,0.1,0.5c0,0.2,0,0.5,0,0.8V64H23c0.1,0,0.2,0.1,0.3,0.2c0.1,0.2,0.1,0.4,0.1,0.6 c0,0.2,0,0.4-0.1,0.6c-0.1,0.1-0.2,0.2-0.4,0.2h-0.2v3.8c0,0.3,0,0.6,0,0.8c0,0.1,0,0.3,0.1,0.4c0,0.1,0.1,0.2,0.2,0.2 c0.1,0,0.1,0,0.2-0.1c0.1,0,0.1-0.1,0.2-0.1c0.1,0,0.1,0.1,0.2,0.2c0.1,0.2,0.1,0.3,0.1,0.5c0,0.3-0.1,0.5-0.2,0.8 c-0.2,0.2-0.4,0.3-0.6,0.3c-0.2,0-0.5-0.1-0.6-0.3c-0.2-0.3-0.2-0.6-0.3-0.9c-0.1-0.5-0.1-1-0.1-1.6v-4h-0.1 c-0.1,0-0.2-0.1-0.3-0.2c-0.1-0.2-0.1-0.3-0.1-0.5c0-0.2,0-0.4,0.1-0.6C21.5,64,21.6,64,21.8,64L21.8,64z"></path> <path class="st0" d="M24.7,65.2c0.1-0.4,0.3-0.7,0.5-1.1c0.2-0.3,0.6-0.5,0.9-0.3c0.1,0.1,0.2,0.2,0.3,0.3c0.2,0.3,0.3,0.6,0.4,1 c0.1,0.3,0.1,0.6,0.1,0.8c0,0.3,0,0.7,0,1.1V71c0,0.3,0,0.7-0.1,1c-0.1,0.2-0.2,0.3-0.3,0.3s-0.2-0.1-0.3-0.3 C26,71.7,26,71.3,26,71v-3.5c0-0.5,0-1.1-0.1-1.6c-0.1-0.4-0.2-0.6-0.5-0.6s-0.3,0.1-0.4,0.3c-0.1,0.3-0.2,0.6-0.3,0.9 c0,0.3,0,0.9,0,1.7V71c0,0.3,0,0.7-0.1,1c-0.1,0.2-0.2,0.3-0.3,0.3S24.1,72.2,24,72c-0.1-0.3-0.1-0.6-0.1-0.9v-6 c0-0.3,0-0.6,0.1-0.9c0.1-0.2,0.2-0.3,0.3-0.3c0.1,0,0.2,0.1,0.2,0.2c0.1,0.1,0.1,0.2,0.1,0.4c0,0.2,0.1,0.4,0,0.7L24.7,65.2z"></path> <path class="st0" d="M29.2,68.4l-0.5,0.3c-0.1,0.1-0.2,0.2-0.3,0.3c-0.1,0.2-0.1,0.5-0.1,0.7c0,0.3,0,0.6,0.1,0.8 c0.1,0.2,0.2,0.3,0.4,0.3c0.2,0,0.4-0.1,0.5-0.3c0.2-0.2,0.3-0.4,0.3-0.7c0.1-0.5,0.1-1,0.1-1.6v-0.3 C29.6,68.2,29.4,68.3,29.2,68.4 M29.2,72c-0.2,0.2-0.4,0.3-0.6,0.3c-0.2,0-0.4-0.1-0.6-0.3c-0.2-0.3-0.3-0.6-0.4-0.9 c-0.1-0.4-0.1-0.8-0.1-1.2c0-0.5,0.1-1,0.2-1.5c0.1-0.3,0.3-0.6,0.6-0.8l0.4-0.2l0.5-0.3c0.1-0.1,0.3-0.2,0.5-0.3 c0-0.4,0-0.8-0.1-1.2c-0.1-0.2-0.3-0.4-0.5-0.4c-0.2,0-0.4,0.1-0.5,0.2c-0.1,0.2-0.2,0.4-0.3,0.7c-0.1,0.3-0.1,0.5-0.2,0.6 c0,0.1-0.1,0.1-0.2,0.1c-0.1,0-0.2-0.1-0.2-0.2c-0.1-0.2-0.1-0.4-0.1-0.6c0-0.4,0.1-0.7,0.2-1.1c0.1-0.3,0.3-0.6,0.5-0.8 c0.2-0.2,0.5-0.4,0.8-0.3c0.3,0,0.6,0.1,0.9,0.3c0.2,0.3,0.4,0.6,0.4,1c0.1,0.6,0.2,1.2,0.2,1.9v1.2c0,0.3,0,0.7,0,1.1 c0,0.4,0,0.8,0.1,1.2c0,0.4,0.1,0.7,0.1,0.8c0,0.2,0,0.4-0.1,0.6c-0.1,0.2-0.2,0.3-0.3,0.3s-0.2-0.1-0.3-0.3 c-0.1-0.3-0.2-0.6-0.3-0.9C29.7,71.4,29.5,71.7,29.2,72"></path> <path class="st0" d="M34.2,71c0,0.3,0,0.7-0.1,1c-0.1,0.2-0.2,0.3-0.3,0.3s-0.2-0.1-0.3-0.3c-0.1-0.3-0.1-0.7-0.1-1v-3.4 c0-0.5,0-0.9,0-1.2c0-0.2-0.1-0.5-0.1-0.7c-0.1-0.2-0.2-0.3-0.3-0.3s-0.5,0.2-0.5,0.7c-0.1,0.7-0.1,1.3-0.1,2V71 c0,0.3,0,0.7-0.1,1c-0.1,0.2-0.2,0.3-0.3,0.3s-0.2-0.1-0.3-0.3c-0.1-0.3-0.1-0.7-0.1-1v-6c0-0.3,0-0.6,0.1-0.9 c0.1-0.2,0.2-0.3,0.3-0.3s0.2,0.1,0.3,0.3c0.1,0.3,0.1,0.5,0.1,0.8v0.2c0.1-0.4,0.3-0.7,0.5-1c0.1-0.2,0.3-0.3,0.5-0.3 c0.2,0,0.4,0.1,0.5,0.3c0.2,0.3,0.3,0.6,0.4,1c0.1-0.4,0.2-0.7,0.5-1c0.2-0.3,0.6-0.4,0.9-0.2c0.1,0.1,0.2,0.1,0.2,0.2 c0.2,0.3,0.3,0.6,0.4,1c0.1,0.6,0.1,1.2,0.1,1.8V71c0,0.3,0,0.7-0.1,1c-0.1,0.2-0.2,0.3-0.3,0.3s-0.2-0.1-0.3-0.3 c-0.1-0.3-0.1-0.7-0.1-1v-3.6c0-0.4,0-0.8,0-1.1c0-0.2,0-0.5-0.1-0.7c-0.1-0.2-0.2-0.3-0.3-0.3s-0.2,0.1-0.3,0.3 c-0.1,0.2-0.2,0.4-0.2,0.7c-0.1,0.6-0.1,1.2-0.1,1.9L34.2,71z"></path> <path class="st0" d="M39.5,62.6v3.1h0.8c0.2,0,0.4,0,0.6-0.1c0.2-0.1,0.3-0.3,0.3-0.5c0.1-0.3,0.1-0.6,0.1-0.9 c0-0.3,0-0.6-0.1-0.8c0-0.2-0.1-0.4-0.3-0.5c-0.2-0.1-0.4-0.2-0.6-0.2H39.5z M39.5,67.3v3.6c0,0.4,0,0.7-0.1,1.1 c-0.1,0.2-0.2,0.3-0.3,0.3s-0.3-0.1-0.3-0.3c-0.1-0.3-0.1-0.7-0.1-1v-8.7c0-0.4,0-0.7,0.1-1.1c0.1-0.2,0.2-0.3,0.4-0.3h1.5 c0.2,0,0.4,0,0.5,0.1c0.2,0.1,0.3,0.1,0.4,0.3c0.2,0.2,0.3,0.4,0.4,0.6c0.1,0.3,0.2,0.7,0.3,1c0,0.4,0.1,0.8,0.1,1.2 c0,0.7-0.1,1.4-0.3,2c-0.2,0.4-0.5,0.8-0.9,1c0.2,0.3,0.4,0.6,0.5,0.9c0.2,0.4,0.3,0.9,0.4,1.3c0.1,0.5,0.2,0.9,0.3,1.3 c0,0.3,0.1,0.5,0.1,0.8c0,0.1,0,0.3-0.1,0.4c0,0.1-0.1,0.2-0.2,0.3c-0.1,0.1-0.1,0.1-0.2,0.1c-0.1,0-0.2-0.1-0.3-0.2 c-0.1-0.1-0.1-0.3-0.2-0.4c-0.1-0.2-0.1-0.5-0.2-0.8l-0.4-1.5c-0.1-0.6-0.3-1-0.4-1.3c-0.1-0.2-0.2-0.4-0.3-0.6 c-0.1-0.1-0.3-0.2-0.4-0.2L39.5,67.3z"></path> <path class="st0" d="M45.3,70.8c-0.1,0.3-0.2,0.5-0.3,0.8c-0.1,0.2-0.2,0.3-0.4,0.5c-0.1,0.1-0.3,0.2-0.5,0.2 c-0.2,0-0.4-0.1-0.5-0.3c-0.2-0.3-0.3-0.6-0.4-0.9c-0.1-0.6-0.2-1.3-0.2-1.9V65c0-0.3,0-0.6,0.1-0.9c0.1-0.2,0.2-0.3,0.3-0.3 s0.2,0.1,0.3,0.3c0.1,0.3,0.1,0.6,0.1,0.9v3.3c0,0.4,0,0.8,0.1,1.2c0,0.3,0.1,0.5,0.2,0.8c0.1,0.2,0.2,0.3,0.3,0.3 s0.3-0.1,0.4-0.3c0.1-0.3,0.2-0.5,0.3-0.8c0.1-0.6,0.1-1.3,0.1-1.9V65c0-0.3,0-0.6,0.1-0.9c0.1-0.2,0.2-0.3,0.3-0.3 s0.2,0.1,0.3,0.3c0.1,0.3,0.1,0.6,0,0.9v6c0,0.3,0,0.6-0.1,0.9c-0.1,0.2-0.2,0.3-0.3,0.3s-0.2-0.1-0.3-0.3 c-0.1-0.3-0.1-0.6-0.1-0.9L45.3,70.8z"></path> <path class="st0" d="M47.9,70c0.2,0.4,0.3,0.7,0.6,0.7s0.4-0.2,0.5-0.7c0.2-0.6,0.3-1.3,0.2-2c0-0.5,0-1-0.1-1.4 c0-0.3-0.1-0.6-0.3-0.9c-0.1-0.2-0.3-0.3-0.4-0.3c-0.2,0-0.4,0.1-0.4,0.3c-0.2,0.3-0.2,0.6-0.3,0.9c-0.1,0.5-0.1,1-0.1,1.5 C47.7,68.7,47.7,69.4,47.9,70 M47.6,65.1c0.1-0.3,0.3-0.7,0.5-0.9c0.1-0.2,0.4-0.3,0.6-0.3c0.3,0,0.6,0.2,0.7,0.5 c0.3,0.4,0.4,0.9,0.5,1.4c0.1,0.7,0.2,1.5,0.2,2.2c0,0.6-0.1,1.2-0.2,1.8c-0.1,0.5-0.2,0.9-0.3,1.4c-0.1,0.3-0.2,0.6-0.4,0.9 c-0.1,0.2-0.4,0.3-0.6,0.3c-0.1,0-0.3,0-0.4-0.1c-0.1-0.1-0.2-0.2-0.3-0.3c-0.1-0.1-0.2-0.2-0.2-0.4c0-0.1-0.1-0.3-0.2-0.6v0.2 c0,0.3,0,0.6-0.1,0.9c-0.1,0.2-0.2,0.3-0.3,0.3S47,72.2,47,72c-0.1-0.3-0.1-0.6-0.1-0.9V62c0-0.3,0-0.7,0.1-1 c0.1-0.2,0.2-0.3,0.3-0.3s0.2,0.1,0.3,0.3c0.1,0.3,0.1,0.6,0.1,0.9L47.6,65.1z"></path> <path class="st0" d="M51.8,70c0.1,0.4,0.3,0.7,0.6,0.7s0.4-0.2,0.5-0.7c0.2-0.7,0.3-1.3,0.2-2c0-0.5,0-1-0.1-1.4 c0-0.3-0.1-0.6-0.3-0.9c-0.1-0.2-0.3-0.3-0.4-0.3c-0.2,0-0.4,0.1-0.4,0.3c-0.1,0.3-0.2,0.6-0.3,0.9c-0.1,0.5-0.1,1-0.1,1.5 C51.6,68.7,51.7,69.4,51.8,70 M51.6,65.1c0.1-0.3,0.3-0.7,0.5-0.9c0.1-0.2,0.4-0.3,0.6-0.3c0.3,0,0.6,0.2,0.7,0.5 c0.2,0.4,0.4,0.9,0.5,1.4c0.1,0.7,0.2,1.5,0.2,2.2c0,0.6,0,1.2-0.1,1.8c-0.1,0.5-0.1,0.9-0.3,1.4c-0.1,0.3-0.2,0.6-0.5,0.9 c-0.1,0.2-0.3,0.3-0.6,0.3c-0.1,0-0.3,0-0.4-0.1c-0.1-0.1-0.2-0.2-0.3-0.3c-0.1-0.1-0.1-0.2-0.2-0.4c0-0.1-0.1-0.3-0.2-0.6v0.2 c0,0.3,0,0.6-0.1,0.9c-0.1,0.2-0.2,0.3-0.3,0.3S51,72.2,50.9,72c-0.1-0.3-0.1-0.6-0.1-0.9V62c0-0.3,0-0.7,0.1-1 c0.1-0.2,0.2-0.3,0.3-0.3s0.2,0.1,0.3,0.3c0.1,0.3,0.1,0.6,0.1,0.9V65.1z"></path> <path class="st0" d="M57,67.3c0-0.5-0.1-1.1-0.2-1.6c-0.1-0.4-0.3-0.5-0.5-0.5s-0.4,0.2-0.5,0.6c-0.2,0.5-0.2,1.1-0.3,1.6H57z M55.5,68.5c0,0.4,0,0.8,0.1,1.3c0,0.3,0.1,0.6,0.3,0.8c0.1,0.2,0.2,0.3,0.4,0.3c0.1,0,0.2,0,0.3-0.1c0.1-0.1,0.2-0.2,0.2-0.3 c0.1-0.1,0.2-0.3,0.2-0.4c0.1-0.1,0.2-0.3,0.3-0.6c0-0.1,0.1-0.1,0.2-0.1c0.1,0,0.2,0.1,0.2,0.2c0.1,0.2,0.1,0.3,0.1,0.5 c0,0.2,0,0.4-0.1,0.7c-0.1,0.2-0.2,0.5-0.3,0.7c-0.1,0.2-0.3,0.4-0.5,0.6c-0.2,0.1-0.4,0.2-0.6,0.2c-0.5,0-1-0.4-1.3-1.1 c-0.4-1-0.5-2.1-0.5-3.1c0-0.6,0-1.2,0.1-1.7c0.1-0.5,0.2-0.9,0.3-1.3c0.1-0.3,0.3-0.6,0.5-0.9c0.2-0.2,0.4-0.3,0.7-0.3 c0.4,0,0.7,0.2,0.8,0.5c0.3,0.4,0.4,0.9,0.5,1.3c0.1,0.6,0.2,1.1,0.2,1.7c0,0.3,0,0.7-0.2,1c-0.1,0.2-0.3,0.2-0.5,0.2L55.5,68.5z"></path> <path class="st0" d="M59.3,71c0,0.3,0,0.7-0.1,1c-0.1,0.2-0.2,0.3-0.3,0.3s-0.2-0.1-0.3-0.3c-0.1-0.3-0.1-0.7-0.1-1v-5.8 c0-0.9,0.1-1.4,0.4-1.4s0.2,0.1,0.3,0.3c0.1,0.3,0.1,0.7,0.1,1c0.1-0.3,0.2-0.7,0.3-1c0.1-0.2,0.2-0.3,0.4-0.3 c0.2,0,0.4,0.1,0.5,0.3c0.2,0.3,0.3,0.6,0.2,0.9c0,0.2,0,0.4-0.1,0.6c-0.1,0.2-0.1,0.3-0.2,0.3c-0.1,0-0.2-0.1-0.2-0.1 c-0.1-0.1-0.2-0.1-0.3-0.1c-0.1,0-0.3,0.1-0.3,0.2c-0.1,0.2-0.2,0.5-0.2,0.7c-0.1,0.4-0.1,0.8-0.1,1.1c0,0.4,0,1,0,1.6L59.3,71z"></path> <path class="st0" d="M67,69.7c0,0.3,0,0.5,0,0.7c0,0.2-0.1,0.3-0.1,0.5c-0.1,0.1-0.1,0.3-0.2,0.4c-0.2,0.3-0.5,0.6-0.8,0.8 c-0.2,0.2-0.5,0.3-0.8,0.3c-0.4,0-0.7-0.1-0.9-0.4c-0.3-0.3-0.6-0.7-0.7-1.2c-0.2-0.6-0.4-1.2-0.5-1.8c-0.1-0.8-0.2-1.6-0.2-2.4 c0-0.8,0-1.6,0.2-2.4c0.1-0.6,0.2-1.2,0.5-1.8c0.1-0.4,0.3-0.8,0.6-1.2c0.3-0.3,0.6-0.4,1-0.4c0.3,0,0.6,0.1,0.8,0.3 c0.2,0.2,0.4,0.5,0.6,0.8c0.1,0.3,0.3,0.7,0.3,1c0.1,0.3,0.1,0.6,0.1,0.9c0,0.2,0,0.5-0.1,0.7c-0.1,0.2-0.2,0.3-0.3,0.3 c-0.1,0-0.2,0-0.2-0.1c-0.1-0.1-0.2-0.2-0.2-0.4c-0.1-0.4-0.2-0.8-0.3-1c-0.1-0.2-0.2-0.4-0.3-0.6c-0.1-0.1-0.3-0.2-0.5-0.2 c-0.2,0-0.4,0.1-0.6,0.3c-0.2,0.2-0.3,0.5-0.4,0.8c-0.1,0.4-0.2,0.8-0.3,1.3c-0.1,0.6-0.1,1.1-0.1,1.7c0,1,0.1,2,0.4,3 c0.2,0.7,0.6,1.1,1,1.1c0.2,0,0.4-0.1,0.6-0.2c0.2-0.2,0.4-0.4,0.6-0.6v-1.8h-0.7c-0.1,0-0.3-0.1-0.4-0.2 c-0.1-0.2-0.1-0.5-0.1-0.7c0-0.2,0-0.4,0.1-0.6c0.1-0.2,0.2-0.3,0.3-0.3h1c0.1,0,0.2,0,0.3,0.1c0.1,0.1,0.2,0.2,0.2,0.4 c0.1,0.3,0.1,0.6,0.1,0.9L67,69.7z"></path> <path class="st0" d="M68.6,71c0,0.3,0,0.7-0.1,1c-0.1,0.2-0.2,0.3-0.3,0.3s-0.2-0.1-0.3-0.3c-0.1-0.3-0.1-0.7-0.1-1v-5.8 c0-0.9,0.1-1.4,0.4-1.4s0.2,0.1,0.3,0.3c0.1,0.3,0.1,0.7,0.1,1c0.1-0.3,0.2-0.7,0.3-1c0.1-0.2,0.2-0.3,0.4-0.3 c0.2,0,0.4,0.1,0.5,0.3c0.2,0.3,0.3,0.6,0.2,0.9c0,0.2,0,0.4-0.1,0.6c-0.1,0.2-0.1,0.3-0.2,0.3c-0.1,0-0.2-0.1-0.2-0.1 c-0.1-0.1-0.2-0.1-0.3-0.1c-0.1,0-0.2,0.1-0.3,0.2c-0.1,0.2-0.2,0.5-0.2,0.7c0,0.4-0.1,0.8-0.1,1.1c0,0.4,0,1,0,1.6L68.6,71z"></path> <path class="st0" d="M72.6,66c-0.2-0.5-0.3-0.7-0.6-0.7s-0.3,0.1-0.4,0.3c-0.2,0.3-0.3,0.6-0.3,0.9c-0.1,0.5-0.1,1-0.1,1.4 c0,0.5,0,1,0.1,1.4c0,0.3,0.1,0.6,0.3,0.9c0.1,0.2,0.3,0.3,0.4,0.3s0.4-0.2,0.6-0.7c0.2-0.7,0.3-1.3,0.2-2 C72.8,67.3,72.7,66.6,72.6,66 M73.6,69.7c-0.1,0.5-0.2,0.9-0.3,1.3c-0.1,0.3-0.3,0.6-0.5,0.9c-0.2,0.2-0.4,0.3-0.7,0.3 c-0.3,0-0.5-0.1-0.7-0.3c-0.2-0.3-0.4-0.5-0.5-0.9c-0.2-0.4-0.3-0.9-0.3-1.3c-0.1-0.6-0.2-1.1-0.2-1.7c0-0.6,0-1.2,0.1-1.7 c0.1-0.5,0.2-0.9,0.3-1.3c0.1-0.3,0.3-0.6,0.5-0.9c0.2-0.2,0.4-0.3,0.7-0.3c0.3,0,0.5,0.1,0.7,0.3c0.2,0.2,0.4,0.6,0.5,0.9 c0.2,0.4,0.3,0.9,0.3,1.3c0.1,0.6,0.1,1.1,0.1,1.7C73.7,68.6,73.6,69.2,73.6,69.7"></path> <path class="st0" d="M76.5,70.8c-0.1,0.3-0.2,0.5-0.3,0.8c-0.1,0.2-0.2,0.3-0.4,0.5c-0.3,0.2-0.7,0.2-0.9,0c0,0-0.1-0.1-0.1-0.1 c-0.2-0.3-0.3-0.6-0.4-0.9c-0.1-0.6-0.2-1.3-0.2-1.9V65c0-0.3,0-0.6,0.1-0.9c0.1-0.2,0.2-0.3,0.3-0.3s0.2,0.1,0.3,0.3 c0.1,0.3,0.1,0.6,0.1,0.9v3.3c0,0.5,0,0.9,0,1.2c0,0.3,0.1,0.5,0.2,0.8c0,0.2,0.2,0.3,0.3,0.3c0.1,0,0.3-0.1,0.4-0.3 c0.1-0.3,0.2-0.5,0.3-0.8c0.1-0.6,0.1-1.3,0.1-1.9V65c0-0.3,0-0.6,0.1-0.9c0.1-0.2,0.2-0.3,0.3-0.3s0.2,0.1,0.3,0.3 c0.1,0.3,0.1,0.6,0.1,0.9v6c0,0.3,0,0.6-0.1,0.9c-0.1,0.2-0.2,0.3-0.3,0.3s-0.2-0.1-0.3-0.3c-0.1-0.3-0.1-0.6-0.1-0.9L76.5,70.8z"></path> <path class="st0" d="M80.4,66.6c0-0.3-0.1-0.6-0.3-0.9c-0.1-0.2-0.3-0.3-0.4-0.3s-0.4,0.2-0.6,0.7c-0.2,0.6-0.3,1.3-0.3,2 c0,0.7,0.1,1.3,0.2,2c0.2,0.5,0.4,0.7,0.6,0.7s0.3-0.1,0.4-0.3c0.1-0.3,0.2-0.6,0.3-0.9c0.1-0.5,0.1-1,0.1-1.5 C80.5,67.5,80.5,67,80.4,66.6 M78.9,65.2c0.1-0.4,0.3-0.7,0.5-1.1c0.1-0.2,0.3-0.3,0.6-0.3c0.3,0,0.6,0.2,0.7,0.5 c0.3,0.4,0.4,0.9,0.5,1.5c0.1,0.7,0.2,1.5,0.2,2.2c0,0.6,0,1.2-0.1,1.8c-0.1,0.5-0.2,0.9-0.3,1.3c-0.1,0.3-0.2,0.6-0.4,0.8 c-0.2,0.3-0.6,0.4-1,0.2c-0.1-0.1-0.2-0.1-0.2-0.2c-0.2-0.3-0.4-0.7-0.5-1.1V74c0,0.9-0.1,1.4-0.4,1.4s-0.3-0.1-0.3-0.4 c-0.1-0.3-0.1-0.7-0.1-1v-9c0-0.3,0-0.6,0.1-0.9c0.1-0.2,0.2-0.3,0.3-0.3s0.2,0.1,0.3,0.3c0.1,0.3,0.1,0.6,0.1,0.9L78.9,65.2z"></path> <path class="st0" d="M56.8,41.3c0,0-0.1-8.3-3.2-14.7c-2.8-5.7-7.7-6.9-11-10.1c-2.7-2.4-4.8-5.4-6.3-8.8c0,0-1.2,12.5,9.5,18.9 S54.8,35.4,56.8,41.3"></path> <path class="st0" d="M56.8,52.2c0,0-0.1-8.3-3.2-14.7c-2.8-5.7-7.7-6.9-11-10.1c-2.7-2.4-4.8-5.4-6.3-8.8c0,0-1.2,12.5,9.5,19 S54.8,46.3,56.8,52.2"></path> <path class="st0" d="M56.8,63c0,0-0.1-8.3-3.2-14.7c-2.8-5.7-7.7-6.9-11-10.1c-2.7-2.4-4.8-5.4-6.3-8.8c0,0-1.2,12.5,9.5,19 S54.8,57.2,56.8,63"></path> </g> </g> </svg> 